<mxfile host="app.diagrams.net" agent="Mozilla/5.0 (Windows NT 10.0; Win64; x64) AppleWebKit/537.36 (KHTML, like Gecko) Chrome/141.0.0.0 Safari/537.36" version="28.2.5">
  <diagram name="Page-1" id="gHEClbTnxlHgqFP3nz2F">
    <mxGraphModel dx="872" dy="431" grid="1" gridSize="10" guides="1" tooltips="1" connect="1" arrows="1" fold="1" page="1" pageScale="1" pageWidth="827" pageHeight="1169" math="0" shadow="0">
      <root>
        <mxCell id="0" />
        <mxCell id="1" parent="0" />
        <mxCell id="lp9bg5CuKxctWa9kOgLU-12" style="edgeStyle=orthogonalEdgeStyle;rounded=0;orthogonalLoop=1;jettySize=auto;html=1;entryX=0.5;entryY=0;entryDx=0;entryDy=0;" parent="1" source="aZT-aPpyfwkHjN3IkPu0-1" target="lp9bg5CuKxctWa9kOgLU-1" edge="1">
          <mxGeometry relative="1" as="geometry" />
        </mxCell>
        <mxCell id="aZT-aPpyfwkHjN3IkPu0-1" value="&lt;font style=&quot;font-size: 15px;&quot;&gt;เริ่มต้น&lt;/font&gt;" style="ellipse;whiteSpace=wrap;html=1;" parent="1" vertex="1">
          <mxGeometry x="382" y="10" width="120" height="80" as="geometry" />
        </mxCell>
        <mxCell id="lp9bg5CuKxctWa9kOgLU-13" style="edgeStyle=orthogonalEdgeStyle;rounded=0;orthogonalLoop=1;jettySize=auto;html=1;entryX=0.5;entryY=0;entryDx=0;entryDy=0;" parent="1" source="lp9bg5CuKxctWa9kOgLU-1" target="lp9bg5CuKxctWa9kOgLU-2" edge="1">
          <mxGeometry relative="1" as="geometry" />
        </mxCell>
        <mxCell id="lp9bg5CuKxctWa9kOgLU-1" value="&lt;div&gt;&lt;span style=&quot;font-size: 17px;&quot;&gt;รับค่าตัวเลข 3 ค่า&lt;/span&gt;&lt;span style=&quot;font-size: 17px; background-color: transparent; color: light-dark(rgb(0, 0, 0), rgb(255, 255, 255));&quot;&gt;&amp;nbsp;num1 num2 num3&amp;nbsp;&lt;/span&gt;&lt;/div&gt;" style="rounded=0;whiteSpace=wrap;html=1;" parent="1" vertex="1">
          <mxGeometry x="341.5" y="150" width="201" height="60" as="geometry" />
        </mxCell>
        <mxCell id="lp9bg5CuKxctWa9kOgLU-14" style="edgeStyle=orthogonalEdgeStyle;rounded=0;orthogonalLoop=1;jettySize=auto;html=1;entryX=0.5;entryY=0;entryDx=0;entryDy=0;" parent="1" edge="1">
          <mxGeometry relative="1" as="geometry">
            <mxPoint x="442" y="342" as="sourcePoint" />
            <mxPoint x="442" y="422" as="targetPoint" />
          </mxGeometry>
        </mxCell>
        <mxCell id="lp9bg5CuKxctWa9kOgLU-2" value="&lt;div&gt;&lt;span style=&quot;font-size: 17px;&quot;&gt;&amp;nbsp;คำนวณผลรวม&amp;nbsp; &amp;nbsp;&lt;/span&gt;&lt;span style=&quot;font-size: 17px; background-color: transparent; color: light-dark(rgb(0, 0, 0), rgb(255, 255, 255));&quot;&gt;sum = num1 + num2 + num3&lt;/span&gt;&lt;/div&gt;" style="rounded=0;whiteSpace=wrap;html=1;" parent="1" vertex="1">
          <mxGeometry x="336.5" y="280" width="211" height="60" as="geometry" />
        </mxCell>
        <mxCell id="BcaVDK_PR50FUNii-7ZA-1" style="edgeStyle=orthogonalEdgeStyle;rounded=0;orthogonalLoop=1;jettySize=auto;html=1;entryX=0.5;entryY=0;entryDx=0;entryDy=0;" edge="1" parent="1" source="lp9bg5CuKxctWa9kOgLU-3" target="lp9bg5CuKxctWa9kOgLU-7">
          <mxGeometry relative="1" as="geometry" />
        </mxCell>
        <mxCell id="lp9bg5CuKxctWa9kOgLU-3" value="&lt;div&gt;&lt;span style=&quot;font-size: 17px;&quot;&gt;แสดงผลลัพธ์:&amp;nbsp; &amp;nbsp;&lt;/span&gt;&lt;/div&gt;&lt;div&gt;&lt;span style=&quot;font-size: 17px; background-color: transparent; color: light-dark(rgb(0, 0, 0), rgb(255, 255, 255));&quot;&gt;&amp;nbsp;Answer = sum&lt;/span&gt;&lt;/div&gt;" style="rounded=1;whiteSpace=wrap;html=1;" parent="1" vertex="1">
          <mxGeometry x="354" y="420" width="176" height="60" as="geometry" />
        </mxCell>
        <mxCell id="lp9bg5CuKxctWa9kOgLU-7" value="&lt;font style=&quot;font-size: 17px;&quot;&gt;จบการทำงาน&lt;/font&gt;" style="ellipse;whiteSpace=wrap;html=1;" parent="1" vertex="1">
          <mxGeometry x="382" y="550" width="120" height="80" as="geometry" />
        </mxCell>
      </root>
    </mxGraphModel>
  </diagram>
</mxfile>
